<svg width="50" height="50" fill="none" xmlns="http://www.w3.org/2000/svg">
    <path fill-rule="evenodd" clip-rule="evenodd"
        d="M26.025 2.337a5 5 0 0 0-7.07-.105L1.842 18.844a5 5 0 0 0-.105 7.07l7.716 7.95c2.63-2.381 4.91-4.66 6.18-5.93.676-.675 1.067-1.066 1.074-1.036.258 1.043 4.92 3.973 7.075 2.622 2.982-1.87.166-3.828-1.142-4.175-2.834-.754-9.637-3.263-6.809-9.459 2.833-6.207 11.001-3.83 13.432-1.715l4.247-4.123-7.485-7.71Zm8.833 9.099-7.08 6.872c-.642-.94-5.161-3.689-7.09-1.529-1.447 1.62 1.028 3.244 2.571 3.705 7.14 1.966 7.246 5.835 6.83 8.036-3.406 8.266-12.34 5.562-15.145 2.839l-4.079 3.959 7.483 7.709a5 5 0 0 0 7.07.105l17.114-16.611a5 5 0 0 0 .105-7.07l-7.78-8.015Z"
        fill="#2082ED">
    </path>
</svg>